<?xml version="1.0" encoding="UTF-8"?>
<svg version="1.1" xmlns="http://www.w3.org/2000/svg" width="1344" height="768">
<path d="M0 0 C443.52 0 887.04 0 1344 0 C1344 253.44 1344 506.88 1344 768 C900.48 768 456.96 768 0 768 C0 514.56 0 261.12 0 0 Z " fill="#020712" transform="translate(0,0)"/>
<path d="M0 0 C0.70375763 -0.00100708 1.40751526 -0.00201416 2.13259888 -0.00305176 C50.71293835 0.04369249 94.48553675 17.51110056 130.875 49.25 C131.69871094 49.93835938 132.52242187 50.62671875 133.37109375 51.3359375 C139.32627576 56.39319779 144.07765295 62.10289089 148.875 68.25 C149.65617187 69.20390625 150.43734375 70.1578125 151.2421875 71.140625 C185.12906494 113.36389081 196.36022976 164.82423558 191.1875 217.9375 C190.17241703 226.52749269 187.92721456 234.85892864 185.4921875 243.14160156 C184.94145735 245.02297242 184.42169294 246.91334444 183.90625 248.8046875 C181.469129 257.39763999 177.87469285 265.29878016 173.875 273.25 C173.52244141 273.95237793 173.16988281 274.65475586 172.80664062 275.37841797 C160.37981136 299.92965367 143.75753928 322.34376107 121.875 339.25 C121.1015625 339.90097656 120.328125 340.55195312 119.53125 341.22265625 C82.83100206 371.98969744 32.91949612 384.2654332 -14.125 381.25 C-25.78019014 380.09734256 -37.29399799 377.96663164 -48.390625 374.1796875 C-51.1342056 373.2468701 -53.87801097 372.51884046 -56.6875 371.8125 C-87.16119049 363.46592571 -120.95701022 341.75223538 -139.66015625 316.1484375 C-141.18526241 314.07983375 -141.18526241 314.07983375 -143.5625 311.875 C-148.3081443 307.01360828 -158.125 296.37521551 -158.125 289.25 C-159.10432747 289.2699855 -159.10432747 289.2699855 -160.10343933 289.29037476 C-166.90022069 289.42314156 -173.69663367 289.51362215 -180.49438477 289.57958984 C-183.0309953 289.60975862 -185.56750156 289.65069969 -188.10375977 289.70263672 C-191.7504244 289.77544153 -195.39570987 289.80945699 -199.04296875 289.8359375 C-200.17647263 289.86690521 -201.3099765 289.89787292 -202.47782898 289.92977905 C-210.17111262 289.93306595 -210.17111262 289.93306595 -212.94790649 287.94464111 C-216.01025234 284.35344821 -217.35674329 281.55189689 -217 276.9375 C-216.95617187 276.17824219 -216.91234375 275.41898437 -216.8671875 274.63671875 C-215.74334784 271.02268701 -214.10417955 269.58011926 -211.125 267.25 C-207.96245033 266.57011962 -204.89027866 266.66624856 -201.66796875 266.76171875 C-200.76500565 266.76879349 -199.86204254 266.77586823 -198.93171692 266.78315735 C-196.05778912 266.81106681 -193.18583528 266.87379768 -190.3125 266.9375 C-188.36005425 266.96258738 -186.40757785 266.98539978 -184.45507812 267.00585938 C-179.67762898 267.06088211 -174.90164874 267.14713002 -170.125 267.25 C-170.39763672 266.5794458 -170.67027344 265.9088916 -170.95117188 265.21801758 C-172.18472789 262.16971088 -173.40496821 259.11624323 -174.625 256.0625 C-175.05425781 255.00740234 -175.48351562 253.95230469 -175.92578125 252.86523438 C-176.33183594 251.84365234 -176.73789062 250.82207031 -177.15625 249.76953125 C-177.53330078 248.83214111 -177.91035156 247.89475098 -178.29882812 246.92895508 C-179.13729136 244.2101439 -179.28632746 242.07547116 -179.125 239.25 C-180.03789795 239.2814209 -180.9507959 239.3128418 -181.89135742 239.34521484 C-185.29279433 239.44774464 -188.69258047 239.52281395 -192.0949707 239.57958984 C-193.56463596 239.60968538 -195.03412271 239.65057406 -196.50317383 239.70263672 C-198.62105341 239.7757907 -200.73655245 239.80952214 -202.85546875 239.8359375 C-204.12801514 239.8673584 -205.40056152 239.8987793 -206.71166992 239.93115234 C-211.47211856 238.98117368 -212.42934507 237.19904862 -215.125 233.25 C-216.69955739 230.10088521 -216.47299118 227.72991184 -216.125 224.25 C-214.35219439 221.27327416 -212.26891985 218.82195993 -209.125 217.25 C-207.2386088 217.165085 -205.34921485 217.142807 -203.4609375 217.15234375 C-202.33945312 217.15556641 -201.21796875 217.15878906 -200.0625 217.16210938 C-198.886875 217.17048828 -197.71125 217.17886719 -196.5 217.1875 C-195.31664062 217.19201172 -194.13328125 217.19652344 -192.9140625 217.20117188 C-189.98432493 217.21298533 -187.05468728 217.22945742 -184.125 217.25 C-184.2679248 216.55672607 -184.41084961 215.86345215 -184.55810547 215.14916992 C-185.72185151 209.20390139 -186.39984028 203.61246715 -186.25 197.5625 C-186.2279248 196.27110107 -186.20584961 194.97970215 -186.18310547 193.64916992 C-186.16393066 192.52744385 -186.14475586 191.40571777 -186.125 190.25 C-187.03789795 190.2814209 -187.9507959 190.3128418 -188.89135742 190.34521484 C-192.29279433 190.44774464 -195.69258047 190.52281395 -199.0949707 190.57958984 C-200.56463596 190.60968538 -202.03412271 190.65057406 -203.50317383 190.70263672 C-205.62105341 190.7757907 -207.73655245 190.80952214 -209.85546875 190.8359375 C-211.12801514 190.8673584 -212.40056152 190.8987793 -213.71166992 190.93115234 C-218.47211856 189.98117368 -219.42934507 188.19904862 -222.125 184.25 C-223.69955739 181.10088521 -223.47299118 178.72991184 -223.125 175.25 C-221.35219439 172.27327416 -219.26891985 169.82195993 -216.125 168.25 C-213.80083704 168.16413191 -211.47416693 168.14288957 -209.1484375 168.15234375 C-208.12056625 168.15446617 -208.12056625 168.15446617 -207.07192993 168.15663147 C-204.88124239 168.16223325 -202.6906567 168.17478594 -200.5 168.1875 C-199.01562648 168.19251478 -197.53125135 168.19707772 -196.046875 168.20117188 C-192.40621685 168.21220323 -188.76561836 168.22946901 -185.125 168.25 C-185.14409424 167.1669458 -185.16318848 166.0838916 -185.18286133 164.96801758 C-185.12138625 161.01779007 -184.27639054 158.01400034 -183.125 154.25 C-182.70881678 151.85761773 -182.31414879 149.46142415 -181.9375 147.0625 C-176.47495802 116.10443914 -159.38586967 86.40579411 -138.21875 63.53515625 C-136.40141254 61.55168159 -134.70274757 59.51815328 -133 57.4375 C-106.03617889 26.70121768 -64.06155284 7.14923575 -24.125 1.25 C-23.17270508 1.10860596 -23.17270508 1.10860596 -22.20117188 0.96435547 C-14.82971499 0.00068746 -7.42344905 0.00739203 0 0 Z " fill="#272AB1" transform="translate(683.125,196.75)"/>
<path d="M0 0 C1.46566406 1.16015625 1.46566406 1.16015625 2.9609375 2.34375 C6.20224648 5.0536039 8.79284566 8.10577885 11.375 11.4375 C11.84760254 12.04513184 12.32020508 12.65276367 12.80712891 13.27880859 C29.31211518 34.97825755 34.25854599 57.36976285 34 84 C34.78632812 84.07089844 35.57265625 84.14179688 36.3828125 84.21484375 C41.27128059 85.27594751 45.40334359 87.36228318 49.875 89.5625 C50.81553223 90.01794189 51.75606445 90.47338379 52.72509766 90.94262695 C58.56921953 93.78112938 64.38526145 96.67461047 70.18579102 99.60107422 C77.0004665 103.02737205 83.86404067 106.35324311 90.72857666 109.6781311 C92.09823156 110.34153701 93.46766385 111.00540272 94.83685303 111.66976929 C102.84363865 115.5536248 110.87443469 119.3689774 119 123 C117.58840398 125.82319204 115.87339865 126.14981597 113.0078125 127.44140625 C111.38915283 128.17967651 111.38915283 128.17967651 109.73779297 128.93286133 C108.54557129 129.47064209 107.35334961 130.00842285 106.125 130.5625 C103.54453595 131.739719 100.96715741 132.9235785 98.390625 134.109375 C97.71156097 134.42163528 97.03249695 134.73389557 96.33285522 135.05561829 C88.45672515 138.69090987 80.66754138 142.50224932 72.875 146.3125 C60.62362338 152.29501925 48.33562806 158.19308015 36 164 C35.25909119 164.34946686 34.51818237 164.69893372 33.75482178 165.05899048 C31.67083923 166.04138107 29.58568496 167.02122982 27.5 168 C26.3140625 168.556875 25.128125 169.11375 23.90625 169.6875 C21 171 21 171 18 172 C16.85313464 173.69922336 16.85313464 173.69922336 15.94140625 175.83984375 C15.56169678 176.64687744 15.1819873 177.45391113 14.79077148 178.28540039 C14.38544189 179.16059326 13.9801123 180.03578613 13.5625 180.9375 C6.72921675 195.1255841 -1.8819177 209.68249021 -13 221 C-13.66 221 -14.32 221 -15 221 C-14.67 219.35 -14.34 217.7 -14 216 C-13.34 216 -12.68 216 -12 216 C-11.58814453 215.12021484 -11.58814453 215.12021484 -11.16796875 214.22265625 C-10.0411622 212.07833208 -8.80919965 210.33605326 -7.3125 208.4375 C-4.8198486 205.14473827 -2.42577526 201.8051619 -0.125 198.375 C0.47054687 197.49585938 1.06609375 196.61671875 1.6796875 195.7109375 C3.21146365 192.56581132 3.09486425 190.45305864 3 187 C4.875 184.125 4.875 184.125 7 182 C7.66 182 8.32 182 9 182 C9 181.01 9 180.02 9 179 C4.85351967 179.47844004 1.68439654 180.09837598 -2 182 C-2.87914062 182.10570312 -3.75828125 182.21140625 -4.6640625 182.3203125 C-8.66830007 183.13616418 -11.81044956 184.86736674 -15.3125 186.875 C-20.76816634 189.8875632 -25.95810862 192.37631073 -32 194 C-33.16595703 194.36158203 -33.16595703 194.36158203 -34.35546875 194.73046875 C-37.22002954 195.58420321 -40.09190085 196.30792833 -43 197 C-43.63550781 197.1556543 -44.27101563 197.31130859 -44.92578125 197.47167969 C-62.28491653 201.56627798 -78.26077353 198.55170325 -95 193 C-95.98484375 192.6803125 -96.9696875 192.360625 -97.984375 192.03125 C-107.57062276 188.74756292 -115.68706872 183.71882506 -124 178 C-121.8626303 174.68339184 -119.78084663 171.78084663 -117 169 C-116.67 168.01 -116.34 167.02 -116 166 C-116.57073242 166.16298584 -117.14146484 166.32597168 -117.72949219 166.49389648 C-120.01653267 167.00368519 -121.98964456 167.11435968 -124.328125 167.09765625 C-125.12734375 167.09443359 -125.9265625 167.09121094 -126.75 167.08789062 C-127.575 167.07951172 -128.4 167.07113281 -129.25 167.0625 C-130.09046875 167.05798828 -130.9309375 167.05347656 -131.796875 167.04882812 C-133.86461401 167.03707961 -135.93231624 167.01914522 -138 167 C-138.58007812 165.94425781 -139.16015625 164.88851562 -139.7578125 163.80078125 C-141.54710135 160.66991918 -143.53733868 157.94293613 -145.875 155.1875 C-156 142.7872191 -156 142.7872191 -156 137 C-138.51 136.67 -121.02 136.34 -103 136 C-100.27779291 128.67478504 -100.27779291 128.67478504 -100 115 C-121.45 115 -142.9 115 -165 115 C-168.14741328 105.55776017 -168 98.27254297 -168 88 C-139.785 87.505 -139.785 87.505 -111 87 C-116.96694274 77.85927193 -116.96694274 77.85927193 -121 74 C-121.33 73.01 -121.66 72.02 -122 71 C-130.08466166 65.39942549 -140.75707025 66.33137798 -150.125 66.25 C-151.76565582 66.2217911 -153.40628293 66.19185693 -155.046875 66.16015625 C-159.03119774 66.08687781 -163.01518156 66.03694956 -167 66 C-166.62039941 58.14052657 -166.21947541 50.69542959 -163.5625 43.25 C-163.30299561 42.50468018 -163.04349121 41.75936035 -162.77612305 40.99145508 C-157.59679414 26.85672753 -149.77640943 13.58931899 -139 3 C-138.34 3 -137.68 3 -137 3 C-137 2.34 -137 1.68 -137 1 C-135.1627283 -0.64194713 -133.33450218 -2.14024127 -131.375 -3.625 C-130.79032959 -4.0686792 -130.20565918 -4.5123584 -129.60327148 -4.96948242 C-119.22067232 -12.68420562 -108.37488207 -18.16720339 -96 -22 C-94.89527344 -22.35320312 -93.79054688 -22.70640625 -92.65234375 -23.0703125 C-59.20700544 -31.58367134 -25.85560672 -21.64364498 0 0 Z " fill="#050A15" transform="translate(752,299)"/>
<path d="M0 0 C0.8353125 0.37688965 1.670625 0.7537793 2.53125 1.14208984 C22.64258234 10.26551196 39.44150831 21.03866391 55.76171875 35.98828125 C57.46750511 37.52140512 59.25012509 38.96948476 61.0625 40.375 C65.6184156 44.44624373 69.22610826 49.21076624 73 54 C74.17755859 55.43666016 74.17755859 55.43666016 75.37890625 56.90234375 C109.24631555 99.1414722 120.48584555 150.56791266 115.3125 203.6875 C114.29741703 212.27749269 112.05221456 220.60892864 109.6171875 228.89160156 C109.06645735 230.77297242 108.54669294 232.66334444 108.03125 234.5546875 C105.594129 243.14763999 101.99969285 251.04878016 98 259 C97.64744141 259.70237793 97.29488281 260.40475586 96.93164062 261.12841797 C84.50481136 285.67965367 67.88253928 308.09376107 46 325 C45.2265625 325.65097656 44.453125 326.30195312 43.65625 326.97265625 C6.97954582 357.71995992 -42.97714616 370.05915373 -90 367 C-101.6368542 365.8119442 -112.86347028 363.56110834 -124 360 C-124 359.67 -124 359.34 -124 359 C-122.14375 358.90525391 -122.14375 358.90525391 -120.25 358.80859375 C-85.56232109 356.540827 -55.60452289 342.06798409 -30 319 C-29.32195312 318.39542969 -28.64390625 317.79085938 -27.9453125 317.16796875 C-16.4086561 306.26610445 -5.95057473 291.52240846 0.80078125 277.18359375 C9.83969001 258.07336361 9.83969001 258.07336361 20.171875 254.25 C20.78740234 254.05535156 21.40292969 253.86070312 22.03710938 253.66015625 C24.98699531 252.66805531 27.78261252 251.37247838 30.61474609 250.08764648 C32.03906506 249.44164137 33.46851341 248.80671957 34.90478516 248.18774414 C41.28378382 245.42948004 47.46774678 242.29201768 53.67333984 239.16967773 C60.87573347 235.54912786 68.12531279 232.02462824 75.375 228.5 C76.134711 228.1303714 76.894422 227.7607428 77.67715454 227.37991333 C88.69025952 222.02698255 99.74920831 216.83696291 111 212 C100.06009956 206.50108392 89.08096468 201.08962452 78.0625 195.75 C77.31140961 195.3858197 76.56031921 195.0216394 75.78646851 194.64642334 C71.96697735 192.79460085 68.14690331 190.94398869 64.32617188 189.09472656 C61.579219 187.76510878 58.83304157 186.43391994 56.08789062 185.10058594 C52.66473662 183.43796202 49.23886651 181.78099464 45.8125 180.125 C44.8232251 179.64385742 43.8339502 179.16271484 42.81469727 178.66699219 C37.61758313 176.16308079 32.43755824 173.92966227 27 172 C26.96036133 171.26064209 26.92072266 170.52128418 26.87988281 169.75952148 C25.43207923 144.05300899 21.36096294 122.55096564 5 102 C4.44828125 101.22398437 3.8965625 100.44796875 3.328125 99.6484375 C-1.25079246 93.30336617 -6.78684103 88.70536307 -13 84 C-13.76957031 83.39285156 -14.53914062 82.78570312 -15.33203125 82.16015625 C-32.41823708 69.32367112 -52.49088138 63.58842173 -73.625 63.8125 C-74.78773438 63.81314453 -75.95046875 63.81378906 -77.1484375 63.81445312 C-87.48306371 63.86706152 -96.37739167 64.74468199 -106.1875 68.0625 C-107.10442627 68.37195557 -108.02135254 68.68141113 -108.96606445 69.00024414 C-120.3078914 72.97779092 -129.8566162 78.57097627 -139.01171875 86.43359375 C-141 88 -141 88 -144 89 C-144 89.66 -144 90.32 -144 91 C-145.12241471 92.12241471 -146.24838569 93.24138891 -147.38671875 94.34765625 C-154.81928904 101.96019192 -159.97468594 110.72455331 -165 120 C-165.33 120 -165.66 120 -166 120 C-165.5042399 113.08030627 -163.9863813 107.37030517 -161.4375 100.9375 C-160.90286133 99.56549438 -160.90286133 99.56549438 -160.35742188 98.16577148 C-157.05402214 89.84703881 -153.26003661 81.86692308 -149 74 C-148.67 73.38543945 -148.34 72.77087891 -148 72.13769531 C-129.06934517 37.14186563 -98.13945662 8.41481177 -60 -4 C-38.71656812 -10.16287926 -20.20348948 -9.25174385 0 0 Z " fill="#EBC274" transform="translate(759,211)"/>
<path d="M0 0 C0.70109894 -0.00167175 1.40219788 -0.00334351 2.12454224 -0.00506592 C18.0073484 -0.00732331 33.39139373 1.65642841 48.875 5.25 C48.875 5.58 48.875 5.91 48.875 6.25 C48.01503418 6.31731323 48.01503418 6.31731323 47.13769531 6.38598633 C7.43866979 9.58276907 -25.03923188 27.00592131 -51.24609375 56.921875 C-69.27005546 79.2550999 -85.27313744 107.24406963 -90.59765625 135.71484375 C-91.6615212 140.82927598 -93.34330295 145.77333609 -94.9140625 150.75 C-95.16929687 151.575 -95.42453125 152.4 -95.6875 153.25 C-95.91566406 153.971875 -96.14382813 154.69375 -96.37890625 155.4375 C-97.49885677 159.65930299 -98.26839872 163.96699359 -99.125 168.25 C-111.335 168.58 -123.545 168.91 -136.125 169.25 C-133.815 171.23 -131.505 173.21 -129.125 175.25 C-127.96861109 177.56277781 -127.92631072 179.05091221 -127.875 181.625 C-127.84921875 182.39585937 -127.8234375 183.16671875 -127.796875 183.9609375 C-128.23415183 187.01146395 -128.87659043 188.11231554 -131.125 190.25 C-133.96920324 190.662846 -136.43251642 190.81728226 -139.28076172 190.79931641 C-140.1119754 190.80953827 -140.94318909 190.81976013 -141.79959106 190.83029175 C-144.55158165 190.85812678 -147.30257275 190.8561673 -150.0546875 190.8515625 C-151.96656671 190.85933488 -153.87844246 190.8680039 -155.79031372 190.87753296 C-159.80026434 190.89246706 -163.80986284 190.89186883 -167.81982422 190.88134766 C-172.95736246 190.86976427 -178.09345721 190.90359689 -183.23075676 190.950037 C-187.18051575 190.97951298 -191.12992728 190.98125503 -195.07977676 190.97501755 C-196.97361228 190.97604421 -198.86746719 190.98652446 -200.76119614 191.00664139 C-203.41189787 191.03134013 -206.05979193 191.01781436 -208.71044922 190.99462891 C-209.49192322 191.00991638 -210.27339722 191.02520386 -211.07855225 191.04095459 C-214.01933035 190.98414155 -216.39523833 190.85179743 -218.71979141 188.93485641 C-221.47017967 185.70662772 -223.0171242 183.18492359 -223.5 179 C-223.00572704 174.05727042 -221.58671699 172.71171699 -218.125 169.25 C-215.15140551 167.76320275 -212.46200821 168.13887395 -209.1484375 168.15234375 C-208.12056625 168.15446617 -208.12056625 168.15446617 -207.07192993 168.15663147 C-204.88124239 168.16223325 -202.6906567 168.17478594 -200.5 168.1875 C-199.01562648 168.19251478 -197.53125135 168.19707772 -196.046875 168.20117188 C-192.40621685 168.21220323 -188.76561836 168.22946901 -185.125 168.25 C-185.14409424 167.1669458 -185.16318848 166.0838916 -185.18286133 164.96801758 C-185.12138625 161.01779007 -184.27639054 158.01400034 -183.125 154.25 C-182.70881678 151.85761773 -182.31414879 149.46142415 -181.9375 147.0625 C-176.47495802 116.10443914 -159.38586967 86.40579411 -138.21875 63.53515625 C-136.40141254 61.55168159 -134.70274757 59.51815328 -133 57.4375 C-106.03617889 26.70121768 -64.06155284 7.14923575 -24.125 1.25 C-23.17270508 1.10860596 -23.17270508 1.10860596 -22.20117188 0.96435547 C-14.82941907 0.00064878 -7.42366248 0.00935888 0 0 Z " fill="#943AE6" transform="translate(683.125,196.75)"/>
<path d="M0 0 C0.33 0 0.66 0 1 0 C1.125 7.75 1.125 7.75 0 10 C0.99741211 9.97381592 1.99482422 9.94763184 3.02246094 9.9206543 C6.77955021 9.82906189 10.53654443 9.77236243 14.29443359 9.7253418 C15.91016317 9.7004424 17.52578305 9.66650934 19.14111328 9.62280273 C38.67802787 9.10803592 38.67802787 9.10803592 47 15 C47.66308594 16.99487305 47.66308594 16.99487305 48 19 C49.73376975 21.10866278 49.73376975 21.10866278 51.55078125 23.14453125 C53.68421846 25.87602093 55.28042294 28.99074014 57 32 C37.86 32 18.72 32 -1 32 C0.18491835 45.54120901 0.18491835 45.54120901 2 59 C23.45 59 44.9 59 67 59 C67 74 67 74 65 80 C64 81 64 81 61.86766052 81.12025452 C60.92834183 81.11803391 59.98902313 81.11581329 59.02124023 81.11352539 C57.96021591 81.11344986 56.89919159 81.11337433 55.80601501 81.11329651 C54.651866 81.10813522 53.49771698 81.10297394 52.30859375 81.09765625 C51.13361832 81.0962413 49.95864288 81.09482635 48.74806213 81.09336853 C44.97784936 81.08774992 41.20769496 81.07519426 37.4375 81.0625 C34.88867273 81.0574874 32.33984453 81.05292408 29.79101562 81.04882812 C23.52732367 81.03777444 17.26366601 81.02101821 11 81 C11.95226985 82.76629484 12.90700999 84.53125802 13.86279297 86.2956543 C14.39419891 87.27866013 14.92560486 88.26166595 15.47311401 89.27445984 C17.16332048 92.29153225 19.03503775 95.05831898 21.125 97.8125 C23.89341171 101.48703844 26.437046 105.155569 29 109 C2.27 109 -24.46 109 -52 109 C-49.36 112.3 -46.72 115.6 -44 119 C-42.64278924 120.81572791 -41.30160574 122.64400663 -40 124.5 C-39.4225 125.3146875 -38.845 126.129375 -38.25 126.96875 C-37 129 -37 129 -37 131 C-36.15107178 130.99476318 -35.30214355 130.98952637 -34.42749023 130.98413086 C-16.92001309 130.89082379 0.51247715 131.02069872 18 132 C14.37150817 134.41899455 12.93865617 134.1821003 8.640625 134.01171875 C7.99529816 133.98938171 7.34997131 133.96704468 6.68508911 133.94403076 C4.53960146 133.86790619 2.39494632 133.77750539 0.25 133.6875 C-1.24783984 133.63232939 -2.74572571 133.57839627 -4.24365234 133.52563477 C-6.62172146 133.44184453 -8.99974073 133.35735877 -11.37765503 133.26927185 C-20.24657492 132.94278684 -29.11772371 132.7203319 -37.98986816 132.50234985 C-40.61143908 132.43783373 -43.23296982 132.3718773 -45.85449219 132.30541992 C-49.90297464 132.20279463 -53.95147916 132.10109924 -58 132 C-58.33 132.66 -58.66 133.32 -59 134 C-59.33 133.01 -59.66 132.02 -60 131 C-60.97932747 131.0199855 -60.97932747 131.0199855 -61.97843933 131.04037476 C-68.77522069 131.17314156 -75.57163367 131.26362215 -82.36938477 131.32958984 C-84.9059953 131.35975862 -87.44250156 131.40069969 -89.97875977 131.45263672 C-93.6254244 131.52544153 -97.27070987 131.55945699 -100.91796875 131.5859375 C-102.05147263 131.61690521 -103.1849765 131.64787292 -104.35282898 131.67977905 C-112.04611262 131.68306595 -112.04611262 131.68306595 -114.82290649 129.69464111 C-117.88525234 126.10344821 -119.23174329 123.30189689 -118.875 118.6875 C-118.80925781 117.54861328 -118.80925781 117.54861328 -118.7421875 116.38671875 C-117.61834784 112.77268701 -115.97917955 111.33011926 -113 109 C-109.83745033 108.32011962 -106.76527866 108.41624856 -103.54296875 108.51171875 C-102.64000565 108.51879349 -101.73704254 108.52586823 -100.80671692 108.53315735 C-97.93278912 108.56106681 -95.06083528 108.62379768 -92.1875 108.6875 C-90.23505425 108.71258738 -88.28257785 108.73539978 -86.33007812 108.75585938 C-81.55262898 108.81088211 -76.77664874 108.89713002 -72 109 C-72.27263672 108.3294458 -72.54527344 107.6588916 -72.82617188 106.96801758 C-74.05972789 103.91971088 -75.27996821 100.86624323 -76.5 97.8125 C-76.92925781 96.75740234 -77.35851562 95.70230469 -77.80078125 94.61523438 C-78.20683594 93.59365234 -78.61289062 92.57207031 -79.03125 91.51953125 C-79.59682617 90.11344604 -79.59682617 90.11344604 -80.17382812 88.67895508 C-81.01229136 85.9601439 -81.16132746 83.82547116 -81 81 C-81.91289795 81.0314209 -82.8257959 81.0628418 -83.76635742 81.09521484 C-87.16779433 81.19774464 -90.56758047 81.27281395 -93.9699707 81.32958984 C-95.43963596 81.35968538 -96.90912271 81.40057406 -98.37817383 81.45263672 C-100.49605341 81.5257907 -102.61155245 81.55952214 -104.73046875 81.5859375 C-106.00301514 81.6173584 -107.27556152 81.6487793 -108.58666992 81.68115234 C-113.34711856 80.73117368 -114.30434507 78.94904862 -117 75 C-118.57455739 71.85088521 -118.34799118 69.47991184 -118 66 C-116.22719439 63.02327416 -114.14391985 60.57195993 -111 59 C-109.1136088 58.915085 -107.22421485 58.892807 -105.3359375 58.90234375 C-104.21445312 58.90556641 -103.09296875 58.90878906 -101.9375 58.91210938 C-100.761875 58.92048828 -99.58625 58.92886719 -98.375 58.9375 C-97.19164062 58.94201172 -96.00828125 58.94652344 -94.7890625 58.95117188 C-91.85932493 58.96298533 -88.92968728 58.97945742 -86 59 C-86.144375 58.3915625 -86.28875 57.783125 -86.4375 57.15625 C-88.22443106 48.71796444 -88.19362962 40.57348917 -88 32 C-87.31539703 31.99413376 -86.63079407 31.98826752 -85.92544556 31.98222351 C-78.82046291 31.91844734 -71.71593988 31.8340693 -64.61132812 31.73754883 C-61.95741829 31.70422867 -59.30343637 31.67621915 -56.64941406 31.65356445 C-52.84148341 31.62014908 -49.03421762 31.56783915 -45.2265625 31.51171875 C-43.43745956 31.50213387 -43.43745956 31.50213387 -41.61221313 31.49235535 C-40.51122284 31.47256119 -39.41023254 31.45276703 -38.27587891 31.43237305 C-37.30325104 31.42126999 -36.33062317 31.41016693 -35.32852173 31.39872742 C-34.17590347 31.20135735 -34.17590347 31.20135735 -33 31 C-30.3141216 26.9711824 -30.19871618 23.73485892 -31 19 C-33.13659122 15.04177323 -36.42890266 12.67832301 -40 10 C-27.13 10 -14.26 10 -1 10 C-0.67 6.7 -0.34 3.4 0 0 Z " fill="#5E39D5" transform="translate(585,355)"/>
<path d="M0 0 C0.97358523 3.06848984 0.99037805 4.99560725 0.14453125 8.08984375 C-0.06349121 8.8674707 -0.27151367 9.64509766 -0.48583984 10.44628906 C-0.7173877 11.26838867 -0.94893555 12.09048828 -1.1875 12.9375 C-1.42162598 13.78924805 -1.65575195 14.64099609 -1.89697266 15.51855469 C-2.37098808 17.23043862 -2.85008208 18.94092517 -3.33447266 20.64990234 C-3.89635214 22.63400063 -4.44043725 24.62312534 -4.98046875 26.61328125 C-7.42427008 35.18259332 -11.00943489 43.06692573 -15 51 C-15.35255859 51.70237793 -15.70511719 52.40475586 -16.06835938 53.12841797 C-28.49518864 77.67965367 -45.11746072 100.09376107 -67 117 C-67.7734375 117.65097656 -68.546875 118.30195312 -69.34375 118.97265625 C-106.02045418 149.71995992 -155.97714616 162.05915373 -203 159 C-214.6368542 157.8119442 -225.86347028 155.56110834 -237 152 C-237 151.67 -237 151.34 -237 151 C-235.14375 150.90525391 -235.14375 150.90525391 -233.25 150.80859375 C-198.56232109 148.540827 -168.60452289 134.06798409 -143 111 C-142.32195312 110.39542969 -141.64390625 109.79085937 -140.9453125 109.16796875 C-129.4086561 98.26610445 -118.95057473 83.52240846 -112.19921875 69.18359375 C-103.16030999 50.07336361 -103.16030999 50.07336361 -92.828125 46.25 C-92.21259766 46.05535156 -91.59707031 45.86070312 -90.96289062 45.66015625 C-88.01300469 44.66805531 -85.21738748 43.37247838 -82.38525391 42.08764648 C-80.96093494 41.44164137 -79.53148659 40.80671957 -78.09521484 40.18774414 C-71.71621618 37.42948004 -65.53225322 34.29201768 -59.32666016 31.16967773 C-52.86400111 27.92098284 -46.36283819 24.75121128 -39.85861206 21.58676147 C-38.34562166 20.85061767 -36.83304 20.11363328 -35.3208313 19.37588501 C-25.91698476 14.79054448 -16.51849291 10.2178216 -6.79736328 6.33203125 C-3.96979023 5.15466509 -2.26702425 4.40963121 -0.56640625 1.80078125 C-0.37949219 1.20652344 -0.19257812 0.61226563 0 0 Z " fill="#C89346" transform="translate(872,419)"/>
<path d="M0 0 C0.66043808 -0.0065712 1.32087616 -0.0131424 2.00132751 -0.01991272 C4.19212966 -0.03965783 6.38286303 -0.05131431 8.57373047 -0.0612793 C9.32315792 -0.06535482 10.07258537 -0.06943035 10.84472275 -0.07362938 C14.81558711 -0.09450077 18.78641685 -0.10879472 22.75732422 -0.11816406 C26.84614442 -0.12919769 30.93441576 -0.16355848 35.02304268 -0.20333576 C38.17677776 -0.22957639 41.33038396 -0.23786272 44.4842186 -0.24144554 C45.99041299 -0.24629666 47.49660219 -0.25786843 49.00268936 -0.27648354 C58.5650037 -0.38727351 65.42525192 -0.06404754 73.06591797 6.23950195 C74.74042285 9.51874067 74.7237033 11.22925861 74.65966797 14.8605957 C74.63936523 16.35224243 74.63936523 16.35224243 74.61865234 17.87402344 C74.60125 18.63400635 74.58384766 19.39398926 74.56591797 20.17700195 C76.29708862 20.13434204 76.29708862 20.13434204 78.06323242 20.09082031 C109.8218338 19.50575772 109.8218338 19.50575772 117.41113281 23.77905273 C121.22400056 27.56369792 123.06606156 32.0387625 124.75195312 37.0715332 C126.0188752 40.34865857 127.95543616 42.52874151 130.25341797 45.17700195 C133.56591797 49.10686167 133.56591797 49.10686167 133.56591797 50.17700195 C106.83591797 50.17700195 80.10591797 50.17700195 52.56591797 50.17700195 C55.20591797 53.47700195 57.84591797 56.77700195 60.56591797 60.17700195 C61.92312873 61.99272986 63.26431223 63.82100858 64.56591797 65.67700195 C65.14341797 66.49168945 65.72091797 67.30637695 66.31591797 68.14575195 C67.56591797 70.17700195 67.56591797 70.17700195 67.56591797 72.17700195 C68.41484619 72.17176514 69.26377441 72.16652832 70.13842773 72.16113281 C87.64590488 72.06782574 105.07839512 72.19770067 122.56591797 73.17700195 C118.93742614 75.59599651 117.50457414 75.35910225 113.20654297 75.1887207 C112.56121613 75.16638367 111.91588928 75.14404663 111.25100708 75.12103271 C109.10551943 75.04490814 106.96086429 74.95450734 104.81591797 74.86450195 C103.31807813 74.80933135 101.82019226 74.75539822 100.32226562 74.70263672 C97.94419651 74.61884648 95.56617723 74.53436073 93.18826294 74.4462738 C84.31934305 74.11978879 75.44819426 73.89733385 66.5760498 73.67935181 C63.95447889 73.61483568 61.33294815 73.54887926 58.71142578 73.48242188 C54.66294333 73.37979658 50.61443881 73.2781012 46.56591797 73.17700195 C46.23591797 73.83700195 45.90591797 74.49700195 45.56591797 75.17700195 C45.23591797 74.18700195 44.90591797 73.19700195 44.56591797 72.17700195 C43.91303299 72.19032562 43.26014801 72.20364929 42.58747864 72.21737671 C35.79069728 72.35014352 28.9942843 72.4406241 22.1965332 72.5065918 C19.65992267 72.53676058 17.12341641 72.57770164 14.5871582 72.62963867 C10.94049357 72.70244349 7.2952081 72.73645894 3.64794922 72.76293945 C2.51444534 72.79390717 1.38094147 72.82487488 0.21308899 72.85678101 C-7.48019466 72.86006791 -7.48019466 72.86006791 -10.25698853 70.87164307 C-13.31933437 67.28045016 -14.66582532 64.47889884 -14.30908203 59.86450195 C-14.26525391 59.10524414 -14.22142578 58.34598633 -14.17626953 57.5637207 C-13.05242988 53.94968897 -11.41326158 52.50712122 -8.43408203 50.17700195 C-5.27153236 49.49712158 -2.19936069 49.59325051 1.02294922 49.6887207 C2.37739388 49.69933281 2.37739388 49.69933281 3.75920105 49.7101593 C6.63312884 49.73806876 9.50508269 49.80079963 12.37841797 49.86450195 C14.33086372 49.88958934 16.28334012 49.91240174 18.23583984 49.93286133 C23.01328899 49.98788406 27.78926923 50.07413197 32.56591797 50.17700195 C32.29328125 49.50644775 32.02064453 48.83589355 31.73974609 48.14501953 C30.50619008 45.09671284 29.28594976 42.04324519 28.06591797 38.98950195 C27.63666016 37.9344043 27.20740234 36.87930664 26.76513672 35.79223633 C26.35908203 34.7706543 25.95302734 33.74907227 25.53466797 32.6965332 C24.9690918 31.290448 24.9690918 31.290448 24.39208984 29.85595703 C23.55362661 27.13714585 23.40459051 25.00247311 23.56591797 22.17700195 C22.65302002 22.20842285 21.74012207 22.23984375 20.79956055 22.2722168 C17.39812364 22.3747466 13.9983375 22.4498159 10.59594727 22.5065918 C9.12628201 22.53668733 7.65679526 22.57757601 6.18774414 22.62963867 C4.06986456 22.70279266 1.95436552 22.73652409 -0.16455078 22.76293945 C-1.43709717 22.79436035 -2.70964355 22.82578125 -4.02075195 22.8581543 C-8.78120059 21.90817563 -9.73842711 20.12605057 -12.43408203 16.17700195 C-14.00863943 13.02788716 -13.78207322 10.6569138 -13.43408203 7.17700195 C-9.87739413 1.20495137 -6.68463073 0.05496536 0 0 Z " fill="#393BEB" transform="translate(480.43408203125,413.822998046875)"/>
<path d="M0 0 C0.495 1.98 0.495 1.98 1 4 C22.45 4 43.9 4 66 4 C66 19 66 19 64 25 C62.4175993 26.5824007 60.77803002 26.18015698 58.58007812 26.23706055 C57.62998871 26.26337555 56.67989929 26.28969055 55.70101929 26.31680298 C54.65499542 26.33987518 53.60897156 26.36294739 52.53125 26.38671875 C50.89997665 26.42616104 50.89997665 26.42616104 49.23574829 26.46640015 C45.65728609 26.54809644 42.07874121 26.61916536 38.5 26.6875 C37.29003357 26.71190155 36.08006714 26.7363031 34.83343506 26.76144409 C12.4802842 27.18808746 -9.7012035 26.53016267 -32 25 C-31.97063354 23.75391968 -31.97063354 23.75391968 -31.94067383 22.48266602 C-31.92544678 21.39655029 -31.91021973 20.31043457 -31.89453125 19.19140625 C-31.86516479 17.57407593 -31.86516479 17.57407593 -31.83520508 15.92407227 C-31.79722359 12.84566134 -31.79722359 12.84566134 -33.6875 9.9375 C-36.01086912 7.99089344 -38.3536467 6.47019628 -41 5 C-41 4.67 -41 4.34 -41 4 C-27.47 4 -13.94 4 0 4 C0 2.68 0 1.36 0 0 Z " fill="#411D88" transform="translate(586,410)"/>
<path d="M0 0 C26.73 0 53.46 0 81 0 C81 0.66 81 1.32 81 2 C81.66 1.67 82.32 1.34 83 1 C84.52148326 0.91627341 86.04655778 0.89269973 87.5703125 0.90234375 C88.46621094 0.90556641 89.36210938 0.90878906 90.28515625 0.91210938 C91.22230469 0.92048828 92.15945313 0.92886719 93.125 0.9375 C94.06988281 0.94201172 95.01476562 0.94652344 95.98828125 0.95117188 C98.32558387 0.96297643 100.66276061 0.97944241 103 1 C102.26172575 4.37759375 101.30771474 6.08108158 98.9375 8.625 C96.55013292 10.93402177 96.55013292 10.93402177 96 14 C93.79296628 14.96142017 91.58446467 15.91919537 89.375 16.875 C88.75753906 17.14441406 88.14007812 17.41382813 87.50390625 17.69140625 C81.58692373 20.24505134 76.36931514 22.20737776 69.89379883 22.48095703 C68.11583672 22.55819504 68.11583672 22.55819504 66.30195618 22.63699341 C60.89821029 22.80679534 55.49508954 22.93696847 50.08959961 23.02978516 C47.24398087 23.08324613 44.40508742 23.1805787 41.56225586 23.31689453 C18.61758502 24.39164669 18.61758502 24.39164669 12.60980225 20.4197998 C7.65941182 15.45965812 5.18039721 9.54119163 3 3 C2.01 2.67 1.02 2.34 0 2 C0 1.34 0 0.68 0 0 Z " fill="#1D1B79" transform="translate(533,464)"/>
<path d="M0 0 C0.66043808 -0.0065712 1.32087616 -0.0131424 2.00132751 -0.01991272 C4.19212966 -0.03965783 6.38286303 -0.05131431 8.57373047 -0.0612793 C9.32315792 -0.06535482 10.07258537 -0.06943035 10.84472275 -0.07362938 C14.81558711 -0.09450077 18.78641685 -0.10879472 22.75732422 -0.11816406 C26.84614442 -0.12919769 30.93441576 -0.16355848 35.02304268 -0.20333576 C38.17677776 -0.22957639 41.33038396 -0.23786272 44.4842186 -0.24144554 C45.99041299 -0.24629666 47.49660219 -0.25786843 49.00268936 -0.27648354 C65.30130524 -0.46532101 65.30130524 -0.46532101 72.23880005 5.65214539 C74.19302651 7.89754876 73.99944469 9.68619459 74.00341797 12.61450195 C74.02275391 13.56196289 74.04208984 14.50942383 74.06201172 15.4855957 C73.4104558 19.0204148 72.40933416 19.99715708 69.56591797 22.17700195 C66.94630751 22.58222656 64.74180302 22.74491575 62.12280273 22.72631836 C61.37922516 22.73654022 60.63564758 22.74676208 59.86953735 22.7572937 C57.41513748 22.7850608 54.96186234 22.78317499 52.50732422 22.77856445 C50.79865604 22.78633978 49.08999172 22.79500942 47.3813324 22.80453491 C43.80105048 22.81945374 40.22116301 22.81888138 36.64086914 22.80834961 C32.0559472 22.7967592 27.47264094 22.83062178 22.88798618 22.87703896 C19.35941656 22.90652491 15.83123562 22.90825587 12.30256462 22.9020195 C10.61247494 22.90304538 8.92236335 22.91351114 7.23239326 22.93364334 C4.86667511 22.9583673 2.50409686 22.9448052 0.13842773 22.92163086 C-0.55731857 22.93691833 -1.25306488 22.95220581 -1.96989441 22.96795654 C-4.73112894 22.90826877 -6.8358838 22.68672714 -8.97749519 20.86185837 C-11.74698825 17.6082357 -13.32197578 15.14858943 -13.80908203 10.92700195 C-13.31480907 5.98427237 -11.89579903 4.63871895 -8.43408203 1.17700195 C-5.59392113 -0.2430785 -3.17572722 0.02611288 0 0 Z " fill="#7239E6" transform="translate(480.43408203125,413.822998046875)"/>
<path d="M0 0 C0.33 0 0.66 0 1 0 C1.125 7.75 1.125 7.75 0 10 C0.99741211 9.97381592 1.99482422 9.94763184 3.02246094 9.9206543 C6.77955021 9.82906189 10.53654443 9.77236243 14.29443359 9.7253418 C15.91016317 9.7004424 17.52578305 9.66650934 19.14111328 9.62280273 C38.67802787 9.10803592 38.67802787 9.10803592 47 15 C47.66308594 16.99487305 47.66308594 16.99487305 48 19 C49.73376975 21.10866278 49.73376975 21.10866278 51.55078125 23.14453125 C53.68421846 25.87602093 55.28042294 28.99074014 57 32 C37.86 32 18.72 32 -1 32 C-1 35.3 -1 38.6 -1 42 C-1.33 42 -1.66 42 -2 42 C-2 38.7 -2 35.4 -2 32 C-11.24 32 -20.48 32 -30 32 C-30.33 27.71 -30.66 23.42 -31 19 C-33.64549239 14.85301192 -36.04865925 12.96350556 -40 10 C-27.13 10 -14.26 10 -1 10 C-0.67 6.7 -0.34 3.4 0 0 Z " fill="#4B1E84" transform="translate(585,355)"/>
<path d="M0 0 C0.74636719 -0.01417969 1.49273438 -0.02835938 2.26171875 -0.04296875 C4.3125 0.1875 4.3125 0.1875 7.3125 2.1875 C6.43851563 2.40664062 5.56453125 2.62578125 4.6640625 2.8515625 C-2.68338811 4.74618813 -9.96239865 6.80473777 -17.1875 9.125 C-18.29810791 9.46748779 -18.29810791 9.46748779 -19.43115234 9.81689453 C-23.90623738 11.28703423 -27.35859124 13.15387323 -31.1015625 16.00756836 C-33.25237203 17.60776271 -35.55046232 18.78817566 -37.9375 20 C-47.02208867 24.87162621 -54.80839405 31.07313297 -62.36328125 38.046875 C-64.39272324 39.91600812 -66.46022106 41.71414655 -68.5625 43.5 C-83.52129627 56.65290537 -98.57535582 73.24363208 -105.6875 92.1875 C-106.0175 92.8475 -106.3475 93.5075 -106.6875 94.1875 C-106.0275 94.5175 -105.3675 94.8475 -104.6875 95.1875 C-104.6875 94.5275 -104.6875 93.8675 -104.6875 93.1875 C-103.2025 93.6825 -103.2025 93.6825 -101.6875 94.1875 C-103.0625 95.6875 -103.0625 95.6875 -104.6875 97.1875 C-105.3475 97.1875 -106.0075 97.1875 -106.6875 97.1875 C-106.6875 97.8475 -106.6875 98.5075 -106.6875 99.1875 C-107.80991471 100.30991471 -108.93588569 101.42888891 -110.07421875 102.53515625 C-117.50678904 110.14769192 -122.66218594 118.91205331 -127.6875 128.1875 C-128.0175 128.1875 -128.3475 128.1875 -128.6875 128.1875 C-128.1917399 121.26780627 -126.6738813 115.55780517 -124.125 109.125 C-123.59036133 107.75299438 -123.59036133 107.75299438 -123.04492188 106.35327148 C-119.74152214 98.03453881 -115.94753661 90.05442308 -111.6875 82.1875 C-111.3575 81.57293945 -111.0275 80.95837891 -110.6875 80.32519531 C-91.75684517 45.32936563 -60.82695662 16.60231177 -22.6875 4.1875 C-15.29418961 2.04667612 -7.7386386 0.06752739 0 0 Z " fill="#C59051" transform="translate(721.6875,202.8125)"/>
<path d="M0 0 C0.33 0 0.66 0 1 0 C1 3.63 1 7.26 1 11 C2.76259155 11.00447144 2.76259155 11.00447144 4.56079102 11.0090332 C8.94415578 11.03458697 13.32356322 11.13185911 17.70532227 11.25024414 C19.59725149 11.29146793 21.48970299 11.3135437 23.38208008 11.31567383 C39.09834171 11.35288676 39.09834171 11.35288676 43.87451172 15.48974609 C45.73263038 18.31731797 47.08445924 20.74512601 48 24 C47.67 24.66 47.34 25.32 47 26 C15.98 26 -15.04 26 -47 26 C-50 18 -50 18 -50 13 C-34.16 12.67 -18.32 12.34 -2 12 C-1.34 8.04 -0.68 4.08 0 0 Z " fill="#3F36D9" transform="translate(554,423)"/>
<path d="M0 0 C1.23298828 -0.03738281 2.46597656 -0.07476562 3.73632812 -0.11328125 C13.94184249 -0.21241739 13.94184249 -0.21241739 17.61328125 2.7734375 C20.63649257 6.34974077 21.20636354 8.53597859 21.171875 13.26953125 C20.53668186 16.99093453 18.47270984 18.77812849 15.8125 21.375 C11.36495472 23.59877264 5.3837391 22.69453162 0.5 22.75 C-1.3552832 22.80607422 -1.3552832 22.80607422 -3.24804688 22.86328125 C-13.43001921 22.96229557 -13.43001921 22.96229557 -16.48046875 19.9765625 C-19.45722998 15.43989664 -20.05295495 11.76315503 -19.1875 6.375 C-16.75 3.375 -16.75 3.375 -14.1875 1.375 C-11.47717599 -1.33532401 -3.64132649 0.04122964 0 0 Z " fill="#7638DE" transform="translate(428.1875,413.625)"/>
<path d="M0 0 C-0.99 0.66 -1.98 1.32 -3 2 C-3.33 2.66 -3.66 3.32 -4 4 C1.77248277 7.76070682 7.57236389 7.59229639 14.3125 7.75 C15.46790283 7.78528809 16.62330566 7.82057617 17.8137207 7.85693359 C28.15703564 8.11762287 38.42391362 7.95639473 48.6796875 6.46484375 C52.53195342 5.92552652 56.11817598 5.93189782 60 6 C60 6.33 60 6.66 60 7 C29.12308088 12.70712626 -1.79976313 13.65707615 -32 4 C-32 3.67 -32 3.34 -32 3 C-31.40050537 2.9498877 -30.80101074 2.89977539 -30.18334961 2.84814453 C-27.43407174 2.61424243 -24.68583678 2.36970241 -21.9375 2.125 C-20.99455078 2.04636719 -20.05160156 1.96773437 -19.08007812 1.88671875 C-13.3674207 1.36919578 -5.24896018 -2.09958407 0 0 Z " fill="#AC7B41" transform="translate(667,567)"/>
<path d="M0 0 C-17.0585447 34.47818936 -17.0585447 34.47818936 -30 47 C-30.66 47 -31.32 47 -32 47 C-31.67 45.35 -31.34 43.7 -31 42 C-30.34 42 -29.68 42 -29 42 C-28.58814453 41.12021484 -28.58814453 41.12021484 -28.16796875 40.22265625 C-27.0411622 38.07833208 -25.80919965 36.33605326 -24.3125 34.4375 C-21.8198486 31.14473827 -19.42577526 27.8051619 -17.125 24.375 C-16.52945313 23.49585938 -15.93390625 22.61671875 -15.3203125 21.7109375 C-13.78853635 18.56581132 -13.90513575 16.45305864 -14 13 C-12.125 10.125 -12.125 10.125 -10 8 C-9.34 8 -8.68 8 -8 8 C-8 7.01 -8 6.02 -8 5 C-8.66 4.67 -9.32 4.34 -10 4 C-10 3.34 -10 2.68 -10 2 C-3.375 -1.125 -3.375 -1.125 0 0 Z " fill="#130C36" transform="translate(769,473)"/>
<path d="M0 0 C0.33 0 0.66 0 1 0 C1.05016334 5.13711186 1.08607287 10.27407514 1.10986328 15.41137695 C1.11980124 17.15196217 1.13335628 18.89253125 1.15087891 20.63305664 C1.39761271 45.80716186 1.39761271 45.80716186 -2 56 C-6.33304076 55.35534798 -9.86672065 53.81074878 -13.8125 51.9375 C-14.97394531 51.38964844 -16.13539063 50.84179688 -17.33203125 50.27734375 C-18.21246094 49.85582031 -19.09289062 49.43429687 -20 49 C-19.67 48.34 -19.34 47.68 -19 47 C-11.21428571 47.89835165 -11.21428571 47.89835165 -8 50 C-7.67 50.66 -7.34 51.32 -7 52 C-3.67368356 48.67368356 -3.85082946 46.42628627 -3.75390625 41.8203125 C-3.72103516 40.58152344 -3.68816406 39.34273438 -3.65429688 38.06640625 C-3.59328287 35.44669863 -3.53596859 32.82690214 -3.48242188 30.20703125 C-3.44826172 28.96566406 -3.41410156 27.72429687 -3.37890625 26.4453125 C-3.3538501 25.30594238 -3.32879395 24.16657227 -3.30297852 22.99267578 C-3.00691983 20.06835073 -2.37853297 18.53139622 -1 16 C-0.7047806 13.22605167 -0.49287769 10.5299489 -0.375 7.75 C-0.33632813 7.00492187 -0.29765625 6.25984375 -0.2578125 5.4921875 C-0.16394892 3.6618476 -0.08090282 1.83095857 0 0 Z " fill="#D5B06E" transform="translate(874,366)"/>
<path d="M0 0 C0.66 0.33 1.32 0.66 2 1 C0.46527032 5.72224516 -1.23945126 10.35855331 -3 15 C-2.01 15 -1.02 15 0 15 C0 14.34 0 13.68 0 13 C1.75 11.7109375 1.75 11.7109375 4 10.375 C5.11375 9.70597656 5.11375 9.70597656 6.25 9.0234375 C6.8275 8.68570312 7.405 8.34796875 8 8 C8.33 8.66 8.66 9.32 9 10 C8.34 10.61875 7.68 11.2375 7 11.875 C-0.9906922 19.95572817 -6.62870524 29.08596126 -12 39 C-12.33 39 -12.66 39 -13 39 C-12.51589127 31.89010462 -10.83143614 26.09304584 -8.1875 19.5 C-7.84396484 18.61441406 -7.50042969 17.72882813 -7.14648438 16.81640625 C-4.92405831 11.13733626 -2.52535086 5.55051958 0 0 Z " fill="#AA7740" transform="translate(606,292)"/>
<path d="M0 0 C0 1.32 0 2.64 0 4 C0.66 4.33 1.32 4.66 2 5 C2 5.66 2 6.32 2 7 C-7.49378254 7.62596368 -15.01743708 5.97647055 -24 3 C-24 2.67 -24 2.34 -24 2 C-20.56272197 1.66435098 -17.12514387 1.33187951 -13.6875 1 C-12.71103516 0.90460937 -11.73457031 0.80921875 -10.72851562 0.7109375 C-9.32182617 0.57558594 -9.32182617 0.57558594 -7.88671875 0.4375 C-7.02264404 0.35371094 -6.15856934 0.26992188 -5.26831055 0.18359375 C-3 0 -3 0 0 0 Z " fill="#BE8944" transform="translate(659,568)"/>
<path d="M0 0 C0.99 0.33 1.98 0.66 3 1 C-0.83883957 8.63909784 -5.74610935 15.27768982 -11 22 C-11.80244141 23.03833984 -11.80244141 23.03833984 -12.62109375 24.09765625 C-13.69324845 25.4434172 -14.83732388 26.73162605 -16 28 C-16.66 28 -17.32 28 -18 28 C-17.67 26.35 -17.34 24.7 -17 23 C-16.34 23 -15.68 23 -15 23 C-14.72542969 22.41347656 -14.45085938 21.82695313 -14.16796875 21.22265625 C-13.0411622 19.07833208 -11.80919965 17.33605326 -10.3125 15.4375 C-6.53714065 10.50622816 -3.27527074 5.27144167 0 0 Z " fill="#201644" transform="translate(755,492)"/>
<path d="M0 0 C3.6493981 5.47409715 3.15827138 11.19103034 3.125 17.5625 C3.12306641 18.4484082 3.12113281 19.33431641 3.11914062 20.24707031 C3.07570138 26.8667288 2.74902995 33.41923687 2 40 C1.67 40 1.34 40 1 40 C0.25331277 34.68792752 -0.11933785 29.5957861 -0.09765625 24.21875 C-0.0962413 23.51979614 -0.09482635 22.82084229 -0.09336853 22.10070801 C-0.0878367 19.90042571 -0.07529777 17.70025077 -0.0625 15.5 C-0.05747616 13.99479315 -0.05291482 12.48958468 -0.04882812 10.984375 C-0.03788977 7.32288265 -0.02067359 3.66145183 0 0 Z " fill="#E6C081" transform="translate(871,354)"/>
<path d="M0 0 C0.33 0 0.66 0 1 0 C1 2.97 1 5.94 1 9 C3.475 9.495 3.475 9.495 6 10 C6 10.66 6 11.32 6 12 C-7.38577145 14.13258379 -18.66943087 13.9670932 -32 12 C-32 11.67 -32 11.34 -32 11 C-21.77 11 -11.54 11 -1 11 C-1 8.69 -1 6.38 -1 4 C-0.5 1.5625 -0.5 1.5625 0 0 Z " fill="#752BBD" transform="translate(499,354)"/>
<path d="M0 0 C0.33 0 0.66 0 1 0 C1 3.63 1 7.26 1 11 C14.2 11.66 27.4 12.32 41 13 C41 13.33 41 13.66 41 14 C26.81 14 12.62 14 -2 14 C-1.67 12.35 -1.34 10.7 -1 9 C-0.79371915 7.39814009 -0.60532699 5.793844 -0.4375 4.1875 C-0.35371094 3.39730469 -0.26992188 2.60710937 -0.18359375 1.79296875 C-0.12300781 1.20128906 -0.06242188 0.60960937 0 0 Z " fill="#492EBF" transform="translate(554,423)"/>
<path d="M0 0 C1.29486328 0.05220703 2.58972656 0.10441406 3.92382812 0.15820312 C7.09535276 0.2869366 10.26648496 0.42185657 13.4375 0.5625 C13.4375 0.8925 13.4375 1.2225 13.4375 1.5625 C12.848479 1.58755615 12.25945801 1.6126123 11.65258789 1.63842773 C8.93491329 1.75582361 6.21746658 1.87788715 3.5 2 C2.57380859 2.03931641 1.64761719 2.07863281 0.69335938 2.11914062 C-7.41578423 2.48903139 -15.25125704 3.04343577 -23.125 5.125 C-24.15753906 5.39441406 -25.19007813 5.66382813 -26.25390625 5.94140625 C-27.01574219 6.14636719 -27.77757812 6.35132813 -28.5625 6.5625 C-28.2325 5.9025 -27.9025 5.2425 -27.5625 4.5625 C-26.9025 4.5625 -26.2425 4.5625 -25.5625 4.5625 C-25.18242798 3.59654907 -25.18242798 3.59654907 -24.79467773 2.61108398 C-24.38805908 1.93505127 -23.98144043 1.25901855 -23.5625 0.5625 C-15.80473351 -1.06083915 -7.87395754 -0.35040118 0 0 Z " fill="#B4935E" transform="translate(679.5625,272.4375)"/>
<path d="M0 0 C-0.99 0.495 -0.99 0.495 -2 1 C-2.33 1.99 -2.66 2.98 -3 4 C-4.33076989 4.34342449 -5.66431979 4.67619874 -7 5 C-7.99 6.485 -7.99 6.485 -9 8 C-11.53125 8.2578125 -11.53125 8.2578125 -14.5 8.125 C-18.39956854 7.84437596 -18.39956854 7.84437596 -22 9 C-22.66 8.34 -23.32 7.68 -24 7 C-22.81921875 6.59007812 -21.6384375 6.18015625 -20.421875 5.7578125 C-18.86453448 5.21368147 -17.3072455 4.6694029 -15.75 4.125 C-14.97269531 3.85558594 -14.19539062 3.58617187 -13.39453125 3.30859375 C-12.64042969 3.04433594 -11.88632812 2.78007813 -11.109375 2.5078125 C-10.41811523 2.26691895 -9.72685547 2.02602539 -9.01464844 1.77783203 C-6.94558036 1.03331114 -6.94558036 1.03331114 -4.93066406 -0.15673828 C-3 -1 -3 -1 0 0 Z " fill="#BC8645" transform="translate(695,557)"/>
<path d="M0 0 C1.32 1.65 2.64 3.3 4 5 C-16.13 5 -36.26 5 -57 5 C-57 4.67 -57 4.34 -57 4 C-56.31539703 3.99413376 -55.63079407 3.98826752 -54.92544556 3.98222351 C-47.82046291 3.91844734 -40.71593988 3.8340693 -33.61132812 3.73754883 C-30.95741829 3.70422867 -28.30343637 3.67621915 -25.64941406 3.65356445 C-21.84148341 3.62014908 -18.03421762 3.56783915 -14.2265625 3.51171875 C-12.43745956 3.50213387 -12.43745956 3.50213387 -10.61221313 3.49235535 C-9.51122284 3.47256119 -8.41023254 3.45276703 -7.27587891 3.43237305 C-6.30325104 3.42126999 -5.33062317 3.41016693 -4.32852173 3.39872742 C-3.56010956 3.26714737 -2.79169739 3.13556732 -2 3 C-1.34 2.01 -0.68 1.02 0 0 Z " fill="#3D3AD7" transform="translate(610,459)"/>
<path d="M0 0 C0.66 0.33 1.32 0.66 2 1 C0 4 0 4 -1.75 4.375 C-4.59155826 5.16432174 -6.29168137 6.81235498 -8.484375 8.72265625 C-11.58642102 11.33700947 -13.90854332 13 -18 13 C-17.9296875 10.734375 -17.9296875 10.734375 -17 8 C-14.67193387 6.48765013 -12.62950289 5.36477873 -10.125 4.25 C-9.16787109 3.79560547 -9.16787109 3.79560547 -8.19140625 3.33203125 C-5.49467026 2.06529723 -2.82791967 0.94263989 0 0 Z " fill="#C3935C" transform="translate(786,463)"/>
<path d="M0 0 C7.8667126 0.42522771 15.36190145 1.02462968 23 3 C23 3.33 23 3.66 23 4 C11.615 4.99 11.615 4.99 0 6 C0 4 0 2 0 0 Z " fill="#B03FDB" transform="translate(709,199)"/>
<path d="M0 0 C-0.33 0.99 -0.66 1.98 -1 3 C-2.0725 3.12375 -3.145 3.2475 -4.25 3.375 C-7.37863615 3.89643936 -9.33480424 4.40088254 -12 6 C-12 6.99 -12 7.98 -12 9 C-15.3 9.33 -18.6 9.66 -22 10 C-20.80761658 6.42284975 -19.52518202 5.91405463 -16.27734375 4.24804688 C-15.64957031 3.93931641 -15.02179687 3.63058594 -14.375 3.3125 C-13.77042969 2.99216797 -13.16585937 2.67183594 -12.54296875 2.34179688 C-8.20150843 0.17106671 -4.81494562 -0.32801043 0 0 Z " fill="#D5A762" transform="translate(826,447)"/>
<path d="M0 0 C0.33 0 0.66 0 1 0 C1.125 3.375 1.125 3.375 1 7 C0.34 7.66 -0.32 8.32 -1 9 C-0.72349609 10.11955078 -0.72349609 10.11955078 -0.44140625 11.26171875 C0.16003876 14.99280681 -1.04188896 16.60156702 -2.9375 19.8125 C-3.50339844 20.78832031 -4.06929687 21.76414062 -4.65234375 22.76953125 C-5.09707031 23.50558594 -5.54179688 24.24164063 -6 25 C-6.33 25 -6.66 25 -7 25 C-6.67815391 15.98830962 -3.31711617 8.26743022 0 0 Z " fill="#B17D64" transform="translate(600,306)"/>
<path d="M0 0 C5.8100941 1.67932952 11.00868579 4.39208392 16.375 7.125 C17.30183594 7.59292969 18.22867188 8.06085938 19.18359375 8.54296875 C21.45759406 9.69169056 23.72963282 10.84411881 26 12 C25.34 12.66 24.68 13.32 24 14 C23.01 13.67 22.02 13.34 21 13 C21 12.34 21 11.68 21 11 C19.88625 10.855625 18.7725 10.71125 17.625 10.5625 C14 10 14 10 12 9 C12 8.34 12 7.68 12 7 C9.03 6.505 9.03 6.505 6 6 C6 5.34 6 4.68 6 4 C4.02 4 2.04 4 0 4 C0 2.68 0 1.36 0 0 Z " fill="#2D2927" transform="translate(811,394)"/>
<path d="M0 0 C3.72189239 1.2406308 4.50770808 2.648274 6.75 5.8125 C7.38421875 6.68519531 8.0184375 7.55789063 8.671875 8.45703125 C10 11 10 11 9.703125 13.32421875 C9.47109375 13.87722656 9.2390625 14.43023437 9 15 C8.01 15 7.02 15 6 15 C5.67 12.69 5.34 10.38 5 8 C4.195625 7.773125 3.39125 7.54625 2.5625 7.3125 C0 6 0 6 -0.875 3.4375 C-0.91625 2.633125 -0.9575 1.82875 -1 1 C-0.67 0.67 -0.34 0.34 0 0 Z " fill="#F3D595" transform="translate(831,266)"/>
<path d="M0 0 C0 0.99 0 1.98 0 3 C-1.62053812 4.38903267 -3.29705213 5.71332828 -5 7 C-5.78375 7.845625 -6.5675 8.69125 -7.375 9.5625 C-10.47877608 12.44457779 -13.10324102 13.42630887 -17 15 C-17.33 15.66 -17.66 16.32 -18 17 C-20.32156597 17.40729228 -22.6568787 17.74438677 -25 18 C-22.18197825 14.71230796 -19.31442099 13.16311702 -15.43359375 11.34375 C-10.08699451 8.39153469 -4.32234448 4.32234448 0 0 Z " fill="#9D704A" transform="translate(721,537)"/>
<path d="M0 0 C-0.33 1.32 -0.66 2.64 -1 4 C-6.89695128 5.70701221 -11.41988817 3.95193635 -17 2 C-17 1.67 -17 1.34 -17 1 C-11.29309366 0.00749455 -5.78591511 -0.10477512 0 0 Z " fill="#A97A48" transform="translate(652,569)"/>
<path d="M0 0 C3.54243452 1.36591169 6.92627929 2.90931484 10.3125 4.625 C11.63701172 5.29402344 11.63701172 5.29402344 12.98828125 5.9765625 C13.65214844 6.31429688 14.31601562 6.65203125 15 7 C13.60804085 9.7839183 11.84424221 9.97898997 9 11 C7.49703315 9.35687553 5.99769719 7.71042916 4.5 6.0625 C3.6646875 5.14597656 2.829375 4.22945313 1.96875 3.28515625 C0 1 0 1 0 0 Z " fill="#30353F" transform="translate(754,367)"/>
<path d="M0 0 C0.99 0.33 1.98 0.66 3 1 C-1.14010271 5.54075781 -5.82390176 8.71842138 -11 12 C-11.66 11.34 -12.32 10.68 -13 10 C-12.01 9.67 -11.02 9.34 -10 9 C-10 8.34 -10 7.68 -10 7 C-6.91180815 4.26474436 -3.69464986 1.84732493 0 0 Z " fill="#1A1349" transform="translate(717,537)"/>
<path d="M0 0 C7.78571429 0.89835165 7.78571429 0.89835165 11 3 C11.33 3.66 11.66 4.32 12 5 C13.64363134 5.72159424 15.31050386 6.39351421 17 7 C17 7.66 17 8.32 17 9 C12.66695924 8.35534798 9.13327935 6.81074878 5.1875 4.9375 C4.02605469 4.38964844 2.86460937 3.84179688 1.66796875 3.27734375 C0.78753906 2.85582031 -0.09289062 2.43429687 -1 2 C-0.67 1.34 -0.34 0.68 0 0 Z " fill="#D3AB68" transform="translate(855,413)"/>
<path d="M0 0 C10.23 0.33 20.46 0.66 31 1 C31 1.33 31 1.66 31 2 C20.5711552 5.32479227 10.47378589 2.93622669 0 1 C0 0.67 0 0.34 0 0 Z " fill="#14165A" transform="translate(671,495)"/>
<path d="M0 0 C0.66 0 1.32 0 2 0 C1.47470631 4.1088041 0.33192009 6.25519841 -2.4375 9.3125 C-3.05496094 10.00988281 -3.67242188 10.70726562 -4.30859375 11.42578125 C-6 13 -6 13 -8 13 C-7.67 11.35 -7.34 9.7 -7 8 C-6.34 8 -5.68 8 -5 8 C-4.731875 7.4225 -4.46375 6.845 -4.1875 6.25 C-2.97070811 3.94449957 -1.69666121 1.97943808 0 0 Z " fill="#150E3B" transform="translate(745,507)"/>
<path d="M0 0 C0.66 0.66 1.32 1.32 2 2 C-0.45537753 4.14923518 -2.91479202 6.29379688 -5.375 8.4375 C-6.42300781 9.35499023 -6.42300781 9.35499023 -7.4921875 10.29101562 C-8.1625 10.87431641 -8.8328125 11.45761719 -9.5234375 12.05859375 C-10.450354 12.86768188 -10.450354 12.86768188 -11.39599609 13.69311523 C-13 15 -13 15 -15 16 C-14.33333333 14.66666667 -13.66666667 13.33333333 -13 12 C-12.731875 11.278125 -12.46375 10.55625 -12.1875 9.8125 C-11 8 -11 8 -8.375 7.25 C-7.199375 7.12625 -7.199375 7.12625 -6 7 C-6 6.34 -6 5.68 -6 5 C-4.6875 3.375 -4.6875 3.375 -3 2 C-2.01 2 -1.02 2 0 2 C0 1.34 0 0.68 0 0 Z " fill="#AD3EDB" transform="translate(655,228)"/>
<path d="M0 0 C-3.07132277 1.66935426 -6.06213473 2.6683325 -9.4375 3.5625 C-10.36433594 3.81128906 -11.29117188 4.06007812 -12.24609375 4.31640625 C-14.82046182 4.95543379 -17.39478686 5.50354378 -20 6 C-19 3 -19 3 -16.9375 1.875 C-11.34371174 0.2087652 -5.8064452 -0.14516113 0 0 Z " fill="#D6AA58" transform="translate(729,204)"/>
<path d="M0 0 C2.64 0.33 5.28 0.66 8 1 C8 1.66 8 2.32 8 3 C8.99 2.67 9.98 2.34 11 2 C12.69514137 2.95093297 14.36368108 3.95107762 16 5 C16.66 5 17.32 5 18 5 C18.33 6.32 18.66 7.64 19 9 C14.53202662 7.60121198 10.36177921 5.86369228 6.125 3.875 C4.97257813 3.33617187 3.82015625 2.79734375 2.6328125 2.2421875 C1.76398437 1.83226562 0.89515625 1.42234375 0 1 C0 0.67 0 0.34 0 0 Z " fill="#CFA65F" transform="translate(810,393)"/>
<path d="M0 0 C-2.6072902 2.6072902 -5.5359257 3.48026787 -8.9375 4.6875 C-9.88786133 5.04424805 -9.88786133 5.04424805 -10.85742188 5.40820312 C-15.63553144 7.12148952 -15.63553144 7.12148952 -19 6 C-6.42424242 -0.60227273 -6.42424242 -0.60227273 0 0 Z " fill="#AA793B" transform="translate(761,562)"/>
<path d="M0 0 C0.33 0 0.66 0 1 0 C0.61020794 6.55925943 -0.42113193 11.94526627 -3 18 C-3.33 18 -3.66 18 -4 18 C-4.32665309 11.63026469 -3.5682233 5.35233495 0 0 Z " fill="#DAB166" transform="translate(868,432)"/>
<path d="M0 0 C4.29 0 8.58 0 13 0 C9.85426323 2.09715785 7.98543749 2.52004559 4.3125 3.125 C2.82169922 3.37636719 2.82169922 3.37636719 1.30078125 3.6328125 C0.54152344 3.75398437 -0.21773437 3.87515625 -1 4 C-0.67 2.68 -0.34 1.36 0 0 Z " fill="#BD853F" transform="translate(729,569)"/>
<path d="M0 0 C0 0.66 0 1.32 0 2 C-3.87684087 3.19287411 -6.91621923 4 -11 4 C-10 1 -10 1 -8.3125 -0.25 C-5.26772958 -1.23749311 -3.08088616 -0.7002014 0 0 Z " fill="#D9AE67" transform="translate(850,436)"/>
<path d="M0 0 C3.40312738 1.05875074 6.01353231 2.00902154 9 4 C9 4.66 9 5.32 9 6 C6.03 5.67 3.06 5.34 0 5 C-0.33 4.01 -0.66 3.02 -1 2 C-0.67 1.34 -0.34 0.68 0 0 Z " fill="#F0D08B" transform="translate(770,217)"/>
<path d="M0 0 C1.75070517 0.11470137 3.50057536 0.24219028 5.25 0.375 C6.22453125 0.44460937 7.1990625 0.51421875 8.203125 0.5859375 C11 1 11 1 15 3 C10.38 3 5.76 3 1 3 C0.67 2.01 0.34 1.02 0 0 Z " fill="#A644B7" transform="translate(717,200)"/>
<path d="M0 0 C0.99 0 1.98 0 3 0 C2.5317879 4.77576339 1.75668002 8.04476345 -1 12 C-2.45606519 7.47907032 -1.27032841 4.48351204 0 0 Z " fill="#D5A861" transform="translate(854,465)"/>
<path d="M0 0 C4.23429756 1.31061591 8.07407404 2.94356259 12 5 C8.25 7 8.25 7 6 7 C5.34 6.01 4.68 5.02 4 4 C1.94074861 3.27617533 1.94074861 3.27617533 0 3 C0 2.01 0 1.02 0 0 Z " fill="#3B3A35" transform="translate(792,385)"/>
<path d="M0 0 C-3.54039134 2.9156164 -7.1626772 5.50127818 -11 8 C-10.60935585 5.53471865 -10.26760629 4.26692012 -8.4765625 2.48046875 C-7.86554687 2.05378906 -7.25453125 1.62710937 -6.625 1.1875 C-6.01914062 0.74792969 -5.41328125 0.30835938 -4.7890625 -0.14453125 C-3 -1 -3 -1 0 0 Z " fill="#C59858" transform="translate(633,287)"/>
<path d="M0 0 C0 3 0 3 -1.96875 5.26171875 C-2.8040625 6.06222656 -3.639375 6.86273438 -4.5 7.6875 C-5.3353125 8.49574219 -6.170625 9.30398437 -7.03125 10.13671875 C-8.00578125 11.05904297 -8.00578125 11.05904297 -9 12 C-9.99 11.67 -10.98 11.34 -12 11 C-8.04 7.37 -4.08 3.74 0 0 Z " fill="#852FC8" transform="translate(562,243)"/>
<path d="M0 0 C0 0.99 0 1.98 0 3 C-1.32 3 -2.64 3 -4 3 C-4.33 3.66 -4.66 4.32 -5 5 C-7.5625 5.625 -7.5625 5.625 -10 6 C-10.33 5.01 -10.66 4.02 -11 3 C-9.73160474 2.49384702 -8.46016898 1.99530901 -7.1875 1.5 C-6.12595703 1.08234375 -6.12595703 1.08234375 -5.04296875 0.65625 C-3 0 -3 0 0 0 Z " fill="#D09E6A" transform="translate(702,207)"/>
<path d="M0 0 C-1.625 2 -1.625 2 -4 4 C-7.125 4.1875 -7.125 4.1875 -10 4 C-10.99 4.495 -10.99 4.495 -12 5 C-12.66 4.34 -13.32 3.68 -14 3 C-12.04486839 2.303447 -10.08577524 1.61800435 -8.125 0.9375 C-7.03445313 0.55464844 -5.94390625 0.17179688 -4.8203125 -0.22265625 C-2 -1 -2 -1 0 0 Z " fill="#A17047" transform="translate(685,561)"/>
<path d="M0 0 C0 0.99 0 1.98 0 3 C-1.62053812 4.38903267 -3.29705213 5.71332828 -5 7 C-6.68528688 8.64783606 -8.35697047 10.31002677 -10 12 C-10.66 11.67 -11.32 11.34 -12 11 C-8.19588166 7.08060535 -4.18423892 3.50897269 0 0 Z " fill="#AC7A42" transform="translate(721,537)"/>
<path d="M0 0 C-0.99 1.32 -1.98 2.64 -3 4 C-3 3.34 -3 2.68 -3 2 C-3.66 2 -4.32 2 -5 2 C-5 2.66 -5 3.32 -5 4 C-6.65 4.33 -8.3 4.66 -10 5 C-10 4.01 -10 3.02 -10 2 C-3.375 -1.125 -3.375 -1.125 0 0 Z " fill="#1A1240" transform="translate(769,473)"/>
<path d="M0 0 C2.4375 0.75 2.4375 0.75 5 2 C5.37756808 3.32148827 5.7018576 4.65835921 6 6 C7.54743745 8.12577266 9.25244005 10.0283939 11 12 C10.67 12.66 10.34 13.32 10 14 C8.82739389 12.71372289 7.6620717 11.42080217 6.5 10.125 C5.8503125 9.40570313 5.200625 8.68640625 4.53125 7.9453125 C3 6 3 6 3 4 C2.34 4 1.68 4 1 4 C0.67 2.68 0.34 1.36 0 0 Z " fill="#382B56" transform="translate(627,368)"/>
<path d="M0 0 C0.66 0 1.32 0 2 0 C2.2236337 1.41433206 2.42826476 2.83167618 2.625 4.25 C2.74101563 5.03890625 2.85703125 5.8278125 2.9765625 6.640625 C3.00319395 9.32152459 2.36592084 10.72694089 1 13 C0.1276588 10.00519083 -0.10829766 7.36424089 -0.0625 4.25 C-0.05347656 3.45078125 -0.04445313 2.6515625 -0.03515625 1.828125 C-0.02355469 1.22484375 -0.01195312 0.6215625 0 0 Z " fill="#F3D28B" transform="translate(865,332)"/>
<path d="M0 0 C0.33 0.99 0.66 1.98 1 3 C-1.64 5.31 -4.28 7.62 -7 10 C-7.33 9.34 -7.66 8.68 -8 8 C-5.33333333 5.33333333 -2.66666667 2.66666667 0 0 Z " fill="#080609" transform="translate(609,309)"/>
<path d="M0 0 C0.66 0.33 1.32 0.66 2 1 C0.46527032 5.72224516 -1.23945126 10.35855331 -3 15 C-3.66 14.67 -4.32 14.34 -5 14 C-4.34580901 8.93001981 -2.1453591 4.58009223 0 0 Z " fill="#B27857" transform="translate(606,292)"/>
<path d="M0 0 C1.93816735 0.1141866 3.87555099 0.24173423 5.8125 0.375 C6.89144531 0.44460938 7.97039063 0.51421875 9.08203125 0.5859375 C12 1 12 1 15 3 C12.87506859 3.02693575 10.75004088 3.04636628 8.625 3.0625 C7.44164062 3.07410156 6.25828125 3.08570313 5.0390625 3.09765625 C2 3 2 3 0 2 C0 1.34 0 0.68 0 0 Z " fill="#282FBC" transform="translate(595,553)"/>
<path d="M0 0 C0.66 0 1.32 0 2 0 C1.67 1.98 1.34 3.96 1 6 C-0.98 6.66 -2.96 7.32 -5 8 C-1.125 1.125 -1.125 1.125 0 0 Z " fill="#C59858" transform="translate(757,495)"/>
<path d="M0 0 C-1.89091736 0.84442881 -3.78797515 1.67511587 -5.6875 2.5 C-7.27111328 3.19609375 -7.27111328 3.19609375 -8.88671875 3.90625 C-11.85627816 4.94950801 -13.89195063 5.23065301 -17 5 C-14.09707174 2.60222167 -11.54266359 1.31577989 -7.9375 0.25 C-7.08027344 -0.01296875 -6.22304688 -0.2759375 -5.33984375 -0.546875 C-3 -1 -3 -1 0 0 Z " fill="#131149" transform="translate(733,488)"/>
<path d="M0 0 C1.32 0.33 2.64 0.66 4 1 C3.01 2.175625 3.01 2.175625 2 3.375 C-0.20201441 5.71512812 -0.20201441 5.71512812 0 8 C-1.98 8.99 -1.98 8.99 -4 10 C-2.8905928 6.51329166 -1.73662334 3.22515763 0 0 Z " fill="#201A17" transform="translate(856,470)"/>
<path d="M0 0 C3.96 0 7.92 0 12 0 C11.67 0.66 11.34 1.32 11 2 C8.67843403 2.40729228 6.3431213 2.74438677 4 3 C4 2.34 4 1.68 4 1 C2.68 1.33 1.36 1.66 0 2 C0 1.34 0 0.68 0 0 Z " fill="#171557" transform="translate(601,464)"/>
<path d="M0 0 C1.32 1.65 2.64 3.3 4 5 C-0.95 5 -5.9 5 -11 5 C-11 4.67 -11 4.34 -11 4 C-10.37351562 3.96261719 -9.74703125 3.92523438 -9.1015625 3.88671875 C-8.28429687 3.82097656 -7.46703125 3.75523437 -6.625 3.6875 C-5.81289063 3.62949219 -5.00078125 3.57148438 -4.1640625 3.51171875 C-1.62078662 3.17009472 -1.62078662 3.17009472 0 0 Z " fill="#3933C7" transform="translate(610,459)"/>
<path d="M0 0 C-2 3 -2 3 -5.5 3.8125 C-6.655 3.874375 -7.81 3.93625 -9 4 C-9.66 3.34 -10.32 2.68 -11 2 C-9.54494642 1.47007308 -8.08581873 0.9513211 -6.625 0.4375 C-5.81289063 0.14746094 -5.00078125 -0.14257812 -4.1640625 -0.44140625 C-2 -1 -2 -1 0 0 Z " fill="#1E1610" transform="translate(750,568)"/>
<path d="M0 0 C-5.445 1.485 -5.445 1.485 -11 3 C-9 -1 -9 -1 -6.625 -1.875 C-4 -2 -4 -2 0 0 Z " fill="#1D1766" transform="translate(680,562)"/>
<path d="M0 0 C-1.125 1.9375 -1.125 1.9375 -3 4 C-6.1875 4.75 -6.1875 4.75 -9 5 C-8 2 -8 2 -5.625 0.25 C-3 -1 -3 -1 0 0 Z " fill="#100B0C" transform="translate(639,286)"/>
<path d="M0 0 C2.64 0.33 5.28 0.66 8 1 C5.57869669 3.42130331 4.19888623 3.52840504 0.875 4.125 C-0.03507813 4.29257812 -0.94515625 4.46015625 -1.8828125 4.6328125 C-2.58148437 4.75398438 -3.28015625 4.87515625 -4 5 C-3.67 4.34 -3.34 3.68 -3 3 C-2.34 3 -1.68 3 -1 3 C-0.67 2.01 -0.34 1.02 0 0 Z " fill="#C79F5E" transform="translate(655,274)"/>
<path d="M0 0 C0.66 0 1.32 0 2 0 C0.33248852 3.94139078 -2.22710649 6.7892812 -5 10 C-5.33 9.01 -5.66 8.02 -6 7 C-4.1875 4.3125 -4.1875 4.3125 -2 2 C-1.34 2 -0.68 2 0 2 C0 1.34 0 0.68 0 0 Z " fill="#A940DE" transform="translate(631,251)"/>
<path d="M0 0 C0.99 0.495 0.99 0.495 2 1 C1.01 1.495 1.01 1.495 0 2 C0 1.34 0 0.68 0 0 Z M-4 2 C-2.68 2.33 -1.36 2.66 0 3 C-4.455 5.97 -4.455 5.97 -9 9 C-9 8.01 -9 7.02 -9 6 C-6.75 3.75 -6.75 3.75 -4 2 Z " fill="#D2A257" transform="translate(778,468)"/>
<path d="M0 0 C-2 3 -2 3 -4.1640625 3.51171875 C-4.97617187 3.56972656 -5.78828125 3.62773437 -6.625 3.6875 C-7.85089844 3.78611328 -7.85089844 3.78611328 -9.1015625 3.88671875 C-9.72804688 3.92410156 -10.35453125 3.96148437 -11 4 C-3.77464789 -1.88732394 -3.77464789 -1.88732394 0 0 Z " fill="#BC8E52" transform="translate(788,464)"/>
<path d="M0 0 C0.66 0.66 1.32 1.32 2 2 C-0.25 4.5 -0.25 4.5 -3 7 C-4.32 7 -5.64 7 -7 7 C-7 6.34 -7 5.68 -7 5 C-5.46875 3.7109375 -5.46875 3.7109375 -3.5 2.375 C-2.8503125 1.92898438 -2.200625 1.48296875 -1.53125 1.0234375 C-1.0259375 0.68570312 -0.520625 0.34796875 0 0 Z " fill="#B08243" transform="translate(613,300)"/>
<path d="M0 0 C2.31 0 4.62 0 7 0 C7 1.32 7 2.64 7 4 C4.36 3.67 1.72 3.34 -1 3 C-0.67 2.01 -0.34 1.02 0 0 Z " fill="#DAB56D" transform="translate(705,273)"/>
<path d="M0 0 C0.99 0 1.98 0 3 0 C3.33 1.32 3.66 2.64 4 4 C3.360625 4.103125 2.72125 4.20625 2.0625 4.3125 C1.381875 4.539375 0.70125 4.76625 0 5 C-0.33 5.99 -0.66 6.98 -1 8 C-2 6 -2 6 -1.0625 2.875 C-0.5365625 1.451875 -0.5365625 1.451875 0 0 Z " fill="#0F0D0E" transform="translate(862,456)"/>
<path d="M0 0 C1.98 0.66 3.96 1.32 6 2 C5.67 2.66 5.34 3.32 5 4 C1.9375 4.625 1.9375 4.625 -1 5 C-0.67 3.35 -0.34 1.7 0 0 Z " fill="#181517" transform="translate(865,420)"/>
<path d="M0 0 C3.16115776 1.36983503 3.9927092 1.9890638 6 5 C5.01 5.495 5.01 5.495 4 6 C1.375 5.0625 1.375 5.0625 -1 4 C-0.67 2.68 -0.34 1.36 0 0 Z " fill="#F8D692" transform="translate(811,245)"/>
<path d="M0 0 C0.66 0.66 1.32 1.32 2 2 C-0.64 4.31 -3.28 6.62 -6 9 C-6 8.01 -6 7.02 -6 6 C-5.34 6 -4.68 6 -4 6 C-3.71125 5.38125 -3.4225 4.7625 -3.125 4.125 C-2 2 -2 2 0 0 Z " fill="#281A4E" transform="translate(728,528)"/>
<path d="M0 0 C1.46726798 3.81489674 0.43336419 6.29011622 -1 10 C-1.66 10 -2.32 10 -3 10 C-4 7 -4 7 -3.22265625 5.17578125 C-2.1484375 3.45052083 -1.07421875 1.72526042 0 0 Z " fill="#B7945E" transform="translate(872,419)"/>
<path d="M0 0 C0.99 0 1.98 0 3 0 C3.33 2.64 3.66 5.28 4 8 C3.01 8.495 3.01 8.495 2 9 C0.50178941 5.62902617 0 3.79557881 0 0 Z " fill="#E4C580" transform="translate(777,330)"/>
<path d="M0 0 C1.23556641 0.01740234 1.23556641 0.01740234 2.49609375 0.03515625 C3.32238281 0.04417969 4.14867187 0.05320312 5 0.0625 C5.63808594 0.07410156 6.27617188 0.08570313 6.93359375 0.09765625 C6.93359375 0.75765625 6.93359375 1.41765625 6.93359375 2.09765625 C0.87890625 3.07421875 0.87890625 3.07421875 -1.06640625 3.09765625 C-1.72640625 2.43765625 -2.38640625 1.77765625 -3.06640625 1.09765625 C-2.06640625 0.09765625 -2.06640625 0.09765625 0 0 Z " fill="#332B83" transform="translate(635.06640625,567.90234375)"/>
<path d="M0 0 C1.32 0.33 2.64 0.66 4 1 C0.535 3.97 0.535 3.97 -3 7 C-3.33 6.01 -3.66 5.02 -4 4 C-2.25 1.9375 -2.25 1.9375 0 0 Z " fill="#A6793E" transform="translate(818,520)"/>
<path d="M0 0 C-3.66291938 2.47785723 -6.6109185 3.48964169 -11 4 C-11.33 3.34 -11.66 2.68 -12 2 C-10.56656 1.46809459 -9.12804633 0.94984742 -7.6875 0.4375 C-6.48673828 0.00244141 -6.48673828 0.00244141 -5.26171875 -0.44140625 C-3 -1 -3 -1 0 0 Z " fill="#3031CE" transform="translate(618,484)"/>
<path d="M0 0 C-2 2 -2 2 -4.6015625 2.1953125 C-5.59929688 2.17210937 -6.59703125 2.14890625 -7.625 2.125 C-9.12933594 2.09792969 -9.12933594 2.09792969 -10.6640625 2.0703125 C-11.43492187 2.04710937 -12.20578125 2.02390625 -13 2 C-13 1.67 -13 1.34 -13 1 C-11.58622218 0.63447197 -10.16879424 0.28304505 -8.75 -0.0625 C-7.96109375 -0.25972656 -7.1721875 -0.45695312 -6.359375 -0.66015625 C-3.89605178 -1.01497267 -2.34395868 -0.76877544 0 0 Z " fill="#171360" transform="translate(611,484)"/>
<path d="M0 0 C1.9453125 0.2421875 1.9453125 0.2421875 4.125 0.875 C4.84945312 1.07867187 5.57390625 1.28234375 6.3203125 1.4921875 C6.87460937 1.65976562 7.42890625 1.82734375 8 2 C7.67 2.99 7.34 3.98 7 5 C4.03 4.01 1.06 3.02 -2 2 C-1.34 1.34 -0.68 0.68 0 0 Z " fill="#CDA461" transform="translate(845,408)"/>
<path d="M0 0 C3.79450934 0.39253545 5.51015791 2.24338912 8 5 C7.67 5.66 7.34 6.32 7 7 C6.566875 6.505 6.13375 6.01 5.6875 5.5 C4.00259517 3.66781808 4.00259517 3.66781808 1 4 C1 3.34 1 2.68 1 2 C0.34 1.67 -0.32 1.34 -1 1 C-0.67 0.67 -0.34 0.34 0 0 Z " fill="#F1D084" transform="translate(820,255)"/>
<path d="M0 0 C1.32 0.33 2.64 0.66 4 1 C3.34 1 2.68 1 2 1 C2 1.66 2 2.32 2 3 C3.98 3 5.96 3 8 3 C8 3.33 8 3.66 8 4 C6.741875 4.04125 5.48375 4.0825 4.1875 4.125 C3.47980469 4.14820313 2.77210938 4.17140625 2.04296875 4.1953125 C0 4 0 4 -3 2 C-2.01 2 -1.02 2 0 2 C0 1.34 0 0.68 0 0 Z " fill="#9F713B" transform="translate(661,573)"/>
<path d="M0 0 C-2 3 -2 3 -5.125 3.6875 C-6.07375 3.790625 -7.0225 3.89375 -8 4 C-7 1 -7 1 -4.5625 -0.25 C-2 -1 -2 -1 0 0 Z " fill="#221A75" transform="translate(669,563)"/>
<path d="M0 0 C5.41538462 -0.36923077 5.41538462 -0.36923077 8.375 1.5 C8.91125 1.995 9.4475 2.49 10 3 C5.82412255 4.39195915 3.86525224 2.82323219 0 1 C0 0.67 0 0.34 0 0 Z " fill="#19191D" transform="translate(833,407)"/>
<path d="M0 0 C0.33 0 0.66 0 1 0 C1 2.31 1 4.62 1 7 C-0.98 7.99 -0.98 7.99 -3 9 C-2.01 6.03 -1.02 3.06 0 0 Z " fill="#A96F5C" transform="translate(600,306)"/>
<path d="M0 0 C0.99 0 1.98 0 3 0 C3.33 1.65 3.66 3.3 4 5 C3.01 5.33 2.02 5.66 1 6 C0 5 0 5 -0.0625 2.4375 C-0.041875 1.633125 -0.02125 0.82875 0 0 Z " fill="#F1D089" transform="translate(843,284)"/>
<path d="M0 0 C2.64 0 5.28 0 8 0 C8 0.99 8 1.98 8 3 C5.03 2.67 2.06 2.34 -1 2 C-0.67 1.34 -0.34 0.68 0 0 Z " fill="#F2CD84" transform="translate(758,214)"/>
<path d="M0 0 C0.6875 1.75 0.6875 1.75 1 4 C-0.4375 6.25 -0.4375 6.25 -2 8 C-2.6875 6.25 -2.6875 6.25 -3 4 C-1.5625 1.75 -1.5625 1.75 0 0 Z " fill="#9231DA" transform="translate(603,295)"/>
<path d="M0 0 C1.32 0 2.64 0 4 0 C4.66 1.65 5.32 3.3 6 5 C4.02 4.34 2.04 3.68 0 3 C0 2.01 0 1.02 0 0 Z " fill="#161416" transform="translate(750,205)"/>
<path d="M0 0 C0.66 0.66 1.32 1.32 2 2 C0.68 2.99 -0.64 3.98 -2 5 C-1.125 1.125 -1.125 1.125 0 0 Z M-4 5 C-3.34 5.33 -2.68 5.66 -2 6 C-3.98 6.99 -3.98 6.99 -6 8 C-5.34 7.01 -4.68 6.02 -4 5 Z " fill="#C28D41" transform="translate(746,513)"/>
<path d="M0 0 C0.33 0.99 0.66 1.98 1 3 C0 4 0 4 -2.5625 4.0625 C-3.7690625 4.0315625 -3.7690625 4.0315625 -5 4 C-5 3.01 -5 2.02 -5 1 C-3.35 0.67 -1.7 0.34 0 0 Z " fill="#03030A" transform="translate(861,424)"/>
<path d="M0 0 C2.4375 1.25 2.4375 1.25 3.4375 4.25 C-2.3125 2.5 -2.3125 2.5 -4.5625 0.25 C-2.5625 -0.75 -2.5625 -0.75 0 0 Z " fill="#D4B068" transform="translate(802.5625,386.75)"/>
</svg>
